<svg width="47" height="35" viewBox="0 0 47 35" fill="none" xmlns="http://www.w3.org/2000/svg">
<path d="M46 5.95V29.05C46 30.3628 45.453 31.6219 44.4792 32.5502C43.5055 33.4785 42.1848 34 40.8077 34H6.19231C4.81522 34 3.49454 33.4785 2.52079 32.5502C1.54705 31.6219 1 30.3628 1 29.05V5.95M46 5.95C46 4.63718 45.453 3.37813 44.4792 2.44982C43.5055 1.52152 42.1848 1 40.8077 1H6.19231C4.81522 1 3.49454 1.52152 2.52079 2.44982C1.54705 3.37813 1 4.63718 1 5.95M46 5.95V6.4846C46.0001 7.32972 45.7732 8.16079 45.341 8.89865C44.9088 9.63651 44.2856 10.2566 43.5308 10.6998L26.2231 20.8528C25.4043 21.3336 24.4616 21.5881 23.5 21.5881C22.5384 21.5881 21.5957 21.3336 20.7769 20.8528L3.46923 10.702C2.71443 10.2588 2.09124 9.63871 1.65901 8.90085C1.22677 8.16299 0.999902 7.33192 1 6.4868V5.95" stroke="#9EA5AE" stroke-width="1.5" stroke-linecap="round" stroke-linejoin="round"/>
</svg>
