<svg width="21" height="21" viewBox="0 0 21 21" fill="none" xmlns="http://www.w3.org/2000/svg">
<g clip-path="url(#clip0_111_1173)">
<path d="M21 3.5V17.5C21 19.4303 19.4303 21 17.5 21H14.875C14.392 21 14 20.608 14 20.125C14 19.642 14.392 19.25 14.875 19.25H17.5C18.4651 19.25 19.25 18.4651 19.25 17.5V3.5C19.25 2.53487 18.4651 1.75 17.5 1.75H14.875C14.392 1.75 14 1.358 14 0.875C14 0.392 14.392 0 14.875 0H17.5C19.4303 0 21 1.56975 21 3.5ZM14.8619 12.6438L10.2305 17.2568C9.786 17.7021 9.18487 17.9375 8.56187 17.9375C8.239 17.9375 7.91087 17.8745 7.59587 17.7441C6.692 17.3722 6.1285 16.5611 6.125 15.6284V14H2.625C1.17775 14 0 12.8223 0 11.375V9.625C0 8.17775 1.17775 7 2.625 7H6.125V5.37337C6.12937 4.43712 6.69287 3.626 7.59675 3.255C8.51988 2.87613 9.555 3.06687 10.2323 3.74412L14.861 8.35275C16.044 9.53662 16.0431 11.4599 14.861 12.6429L14.8619 12.6438Z" fill="#FFFAFA"/>
</g>
<defs>
<clipPath id="clip0_111_1173">
<rect width="21" height="21" fill="white"/>
</clipPath>
</defs>
</svg>
