<svg width="24" height="26" viewBox="0 0 24 26" fill="" xmlns="http://www.w3.org/2000/svg">
<path d="M0.437866 19.5C1.33395 21.0552 3.32117 21.5895 4.8764 20.6935C4.87747 20.6929 4.87848 20.6922 4.87955 20.6916L5.36162 20.4132C6.27162 21.1918 7.31761 21.7956 8.44693 22.1942V22.75C8.44693 24.5449 9.90202 26 11.6969 26C13.4918 26 14.9469 24.5449 14.9469 22.75V22.1943C16.0764 21.795 17.1225 21.1905 18.0322 20.4111L18.5165 20.6906C20.0721 21.588 22.0607 21.0545 22.9582 19.4989C23.8556 17.9433 23.3221 15.9547 21.7665 15.0572L21.2855 14.7799C21.502 13.6017 21.502 12.3939 21.2855 11.2157L21.7665 10.9384C23.3221 10.0409 23.8556 8.05233 22.9582 6.4967C22.0607 4.94112 20.0721 4.40756 18.5165 5.30502L18.0344 5.58345C17.1235 4.80584 16.0768 4.20316 14.9469 3.80575V3.25C14.9469 1.45509 13.4918 0 11.6969 0C9.90202 0 8.44693 1.45509 8.44693 3.25V3.80575C7.31746 4.20504 6.27141 4.80954 5.36162 5.58893L4.87737 5.30837C3.32173 4.41086 1.33314 4.94442 0.435682 6.5C-0.461775 8.05558 0.071733 10.0442 1.62737 10.9417L2.10837 11.219C1.89183 12.3972 1.89183 13.605 2.10837 14.7832L1.62737 15.0605C0.0760494 15.9603 -0.455732 17.9451 0.437866 19.5ZM11.6969 8.66668C14.0902 8.66668 16.0303 10.6068 16.0303 13C16.0303 15.3932 14.0902 17.3333 11.6969 17.3333C9.30371 17.3333 7.36362 15.3932 7.36362 13C7.36362 10.6068 9.30371 8.66668 11.6969 8.66668Z" fill="#AB3939"/>
</svg>
