<svg width="26" height="28" viewBox="0 0 26 28" fill="none" xmlns="http://www.w3.org/2000/svg">
<path d="M9 14.7726L12 17.9509L17 10.5349M25 13.7132C25 15.3827 24.6896 17.0359 24.0866 18.5783C23.4835 20.1207 22.5996 21.5222 21.4853 22.7028C20.371 23.8833 19.0481 24.8197 17.5922 25.4586C16.1363 26.0975 14.5759 26.4264 13 26.4264C11.4241 26.4264 9.86371 26.0975 8.4078 25.4586C6.95189 24.8197 5.62902 23.8833 4.51472 22.7028C3.40042 21.5222 2.5165 20.1207 1.91345 18.5783C1.31039 17.0359 1 15.3827 1 13.7132C1 10.3414 2.26428 7.10779 4.51472 4.7236C6.76516 2.33942 9.8174 1 13 1C16.1826 1 19.2348 2.33942 21.4853 4.7236C23.7357 7.10779 25 10.3414 25 13.7132Z" stroke="white" stroke-width="1.5" stroke-linecap="round" stroke-linejoin="round"/>
</svg>
